# xmcd
#
# Track frame offsets:
#	150
#	18639
#	31607
#	49056
#	63762
#	81707
#	100966
#	115727
#	128133
#	142896
#	159691
#	173261
#	188492
#
# Disc length: 2728 seconds
#
# Revision: 0
# Processed by: cddbd v1.5PL3 Copyright (c) Steve Scherf et al.
# Submitted via: dBpowerAMP V4.0
#
DISCID=9e0aa60d
DTITLE=Carmen Consoli - Dueparole
DYEAR=1900
DGENRE=
TTITLE0=Amore di plastica
TTITLE1=Questa notte una lucciola illumina la mia finestra
TTITLE2=Sulla mia pelle
TTITLE3=Posso essere felice
TTITLE4=Lingua a sonagli
TTITLE5=Non ti ho mai chiesto
TTITLE6=Vorrei dire
TTITLE7=La stonato
TTITLE8=Nell'apparenza
TTITLE9=La semplicità
TTITLE10=Quello che sento
TTITLE11=Fino a quando
TTITLE12=Mai come ieri
EXTD=
EXTT0=
EXTT1=
EXTT2=
EXTT3=
EXTT4=
EXTT5=
EXTT6=
EXTT7=
EXTT8=
EXTT9=
EXTT10=
EXTT11=
EXTT12=
PLAYORDER=
